<mxfile host="app.diagrams.net" agent="Mozilla/5.0 (Windows NT 10.0; Win64; x64) AppleWebKit/537.36 (KHTML, like Gecko) Chrome/135.0.0.0 Safari/537.36 OPR/120.0.0.0" version="28.1.2">
  <diagram name="Page-1" id="DSG7j5aQN97u3OIVjfTy">
    <mxGraphModel dx="1385" dy="755" grid="0" gridSize="10" guides="1" tooltips="1" connect="1" arrows="1" fold="1" page="1" pageScale="1" pageWidth="850" pageHeight="1100" math="0" shadow="0">
      <root>
        <mxCell id="0" />
        <mxCell id="1" parent="0" />
        <mxCell id="ONbuD6-8-r1LhyXfA1VG-1" value="&lt;div style=&quot;box-sizing: border-box; width: 100%; background: rgb(228, 228, 228); padding: 2px;&quot;&gt;Users (Collection)&lt;span style=&quot;white-space: pre;&quot;&gt;&#x9;&lt;/span&gt;&lt;/div&gt;&lt;table style=&quot;width:100%;font-size:1em;&quot; cellpadding=&quot;2&quot; cellspacing=&quot;0&quot;&gt;&lt;tbody&gt;&lt;tr&gt;&lt;td&gt;&lt;/td&gt;&lt;td&gt;Pk&lt;span style=&quot;white-space: pre;&quot;&gt;&#x9;&lt;/span&gt;User_Id: INT&lt;br&gt;&lt;span style=&quot;white-space: pre;&quot;&gt;&#x9;&lt;/span&gt;FirstName: STRING&lt;br&gt;&lt;span style=&quot;white-space: pre;&quot;&gt;&#x9;&lt;/span&gt;LastName: STRING&lt;br&gt;&lt;span style=&quot;white-space: pre;&quot;&gt;&#x9;&lt;/span&gt;Picture:&amp;nbsp;VARBINARY&lt;br&gt;&lt;span style=&quot;white-space: pre;&quot;&gt;&#x9;&lt;/span&gt;Email: STRING&lt;br&gt;&lt;span style=&quot;white-space: pre;&quot;&gt;&#x9;&lt;/span&gt;Phone: STRING&lt;br&gt;&lt;span style=&quot;white-space: pre;&quot;&gt;&#x9;&lt;/span&gt;Password: HASH STRING&lt;br&gt;&lt;span style=&quot;white-space: pre;&quot;&gt;&#x9;&lt;/span&gt;RememberMe: BOOL&lt;br&gt;&lt;span style=&quot;white-space: pre;&quot;&gt;&#x9;&lt;/span&gt;Role: STRING&amp;nbsp;&lt;b&gt;// Client, Owner&lt;/b&gt;&lt;br&gt;&lt;span style=&quot;white-space: pre;&quot;&gt;&#x9;&lt;/span&gt;CreationDate: Date&lt;br&gt;&lt;span style=&quot;white-space: pre;&quot;&gt;&#x9;&lt;/span&gt;Birthday: Date&lt;br&gt;&lt;br&gt;&lt;span style=&quot;white-space: pre;&quot;&gt;&#x9;&lt;/span&gt;&lt;br&gt;&lt;span style=&quot;white-space: pre;&quot;&gt;&#x9;&lt;/span&gt;&lt;br&gt;&lt;/td&gt;&lt;/tr&gt;&lt;tr&gt;&lt;td&gt;&lt;br&gt;&lt;/td&gt;&lt;td&gt;&lt;br&gt;&lt;/td&gt;&lt;/tr&gt;&lt;tr&gt;&lt;td&gt;&lt;br&gt;&lt;/td&gt;&lt;td&gt;&lt;br&gt;&lt;/td&gt;&lt;/tr&gt;&lt;/tbody&gt;&lt;/table&gt;" style="verticalAlign=top;align=left;overflow=fill;html=1;whiteSpace=wrap;" vertex="1" parent="1">
          <mxGeometry x="18" y="19" width="223" height="180" as="geometry" />
        </mxCell>
        <mxCell id="ONbuD6-8-r1LhyXfA1VG-2" value="&lt;div style=&quot;box-sizing: border-box; width: 100%; background: rgb(228, 228, 228); padding: 2px;&quot;&gt;Restaurants&amp;nbsp;&lt;span style=&quot;color: light-dark(rgb(0, 0, 0), rgb(255, 255, 255));&quot;&gt;(Collection)&lt;/span&gt;&lt;span style=&quot;background-color: transparent; color: light-dark(rgb(0, 0, 0), rgb(255, 255, 255)); white-space: pre;&quot;&gt;&#x9;&lt;/span&gt;&lt;/div&gt;&lt;table style=&quot;width:100%;font-size:1em;&quot; cellpadding=&quot;2&quot; cellspacing=&quot;0&quot;&gt;&lt;tbody&gt;&lt;tr&gt;&lt;td&gt;PK&amp;nbsp;&amp;nbsp;&lt;/td&gt;&lt;td&gt;Restaurant_Id: INT&lt;/td&gt;&lt;/tr&gt;&lt;tr&gt;&lt;td&gt;&lt;br&gt;&lt;/td&gt;&lt;td&gt;Name: STRING&lt;br&gt;Picture:&amp;nbsp;VARBINARY&lt;br&gt;Owner_Id: INT&lt;b&gt; --&amp;gt; Users.User_Id&lt;/b&gt;&lt;/td&gt;&lt;/tr&gt;&lt;tr&gt;&lt;td&gt;&lt;/td&gt;&lt;td&gt;Address: STRING&lt;br&gt;City: STRING&lt;br&gt;Country: STRING&lt;br&gt;PostalCode: STRING&lt;br&gt;Phone: STRING&lt;br&gt;Email: STRING&lt;br&gt;Description: STRING&lt;br&gt;Rating: FLOAT&lt;br&gt;Type: STRING&lt;br&gt;Capcity: INT&lt;br&gt;CreationDate: Date&lt;br&gt;&lt;br&gt;&lt;b&gt;Tables &lt;/b&gt;(Subcollection): [&lt;br&gt;Table_Id: INT&lt;br&gt;TableNumber: INT&lt;br&gt;Capacity: INT&lt;br&gt;Reserved: BOOL&lt;br&gt;]&lt;br&gt;&lt;br&gt;&lt;b&gt;Menu &lt;/b&gt;(Subcollection): [&lt;br&gt;Item_Id: INT&lt;br&gt;ItemName: STRING&lt;br&gt;Picture:&amp;nbsp;VARBINARY&lt;br&gt;ItemPrice: FLOAT&lt;br&gt;ItemDescription: STRING&lt;br&gt;ItemCategory&amp;nbsp;&lt;br&gt;]&lt;br&gt;&lt;br&gt;&lt;br&gt;&lt;/td&gt;&lt;/tr&gt;&lt;/tbody&gt;&lt;/table&gt;" style="verticalAlign=top;align=left;overflow=fill;html=1;whiteSpace=wrap;" vertex="1" parent="1">
          <mxGeometry x="19" y="204" width="222" height="448" as="geometry" />
        </mxCell>
        <mxCell id="ONbuD6-8-r1LhyXfA1VG-4" value="&lt;div style=&quot;box-sizing: border-box; width: 100%; background: rgb(228, 228, 228); padding: 2px;&quot;&gt;Reservations&amp;nbsp;&lt;span style=&quot;color: light-dark(rgb(0, 0, 0), rgb(255, 255, 255));&quot;&gt;(Collection)&lt;/span&gt;&lt;span style=&quot;background-color: transparent; color: light-dark(rgb(0, 0, 0), rgb(255, 255, 255)); white-space: pre;&quot;&gt;&#x9;&lt;/span&gt;&lt;/div&gt;&lt;table style=&quot;width:100%;font-size:1em;&quot; cellpadding=&quot;2&quot; cellspacing=&quot;0&quot;&gt;&lt;tbody&gt;&lt;tr&gt;&lt;td&gt;PK&amp;nbsp;&lt;/td&gt;&lt;td&gt;Reservation_Id&lt;/td&gt;&lt;/tr&gt;&lt;tr&gt;&lt;td&gt;&lt;br&gt;&lt;/td&gt;&lt;td&gt;User_Id: INT &lt;b&gt;--&amp;gt; Users.User_Id&lt;/b&gt;&lt;/td&gt;&lt;/tr&gt;&lt;tr&gt;&lt;td&gt;&lt;/td&gt;&lt;td&gt;Restaurant_Id: INT&amp;nbsp;&lt;b&gt;--&amp;gt; Restaurants.Restaurat_Id&lt;/b&gt;&lt;br&gt;Table_Id: INT &lt;b&gt;--&amp;gt;&amp;nbsp;Restaurants/{id}/Tables.Table_Id&lt;/b&gt;&lt;br&gt;DateReservation: DATE&lt;br&gt;HourReservation: TIME&lt;br&gt;GroupSize: INT&lt;br&gt;Status: STRING &lt;b&gt;// Confirmed, Cancelled, Closed&lt;br&gt;&lt;/b&gt;CreationDate: Date&lt;b&gt;&lt;/b&gt;&lt;/td&gt;&lt;/tr&gt;&lt;/tbody&gt;&lt;/table&gt;" style="verticalAlign=top;align=left;overflow=fill;html=1;whiteSpace=wrap;" vertex="1" parent="1">
          <mxGeometry x="270" y="19" width="326" height="176" as="geometry" />
        </mxCell>
        <mxCell id="ONbuD6-8-r1LhyXfA1VG-5" value="&lt;div style=&quot;box-sizing: border-box; width: 100%; background: rgb(228, 228, 228); padding: 2px;&quot;&gt;Reviews (Collection)&lt;/div&gt;&lt;table style=&quot;width:100%;font-size:1em;&quot; cellpadding=&quot;2&quot; cellspacing=&quot;0&quot;&gt;&lt;tbody&gt;&lt;tr&gt;&lt;td&gt;PK&lt;/td&gt;&lt;td&gt;Review_Id: INT&lt;/td&gt;&lt;/tr&gt;&lt;tr&gt;&lt;td&gt;&lt;br&gt;&lt;/td&gt;&lt;td&gt;Restaurant_Id: INT&amp;nbsp;&lt;b&gt;--&amp;gt; Restaurants.Restaurat_Id&lt;/b&gt;&lt;/td&gt;&lt;/tr&gt;&lt;tr&gt;&lt;td&gt;&lt;/td&gt;&lt;td&gt;User_Id: INT&amp;nbsp;&lt;b&gt;--&amp;gt; Users.User_Id&lt;br&gt;&lt;/b&gt;Reservation_Id: INT&amp;nbsp;&lt;b&gt;--&amp;gt; Reservations.Reservation_Id&lt;br&gt;&lt;/b&gt;Body: STRING&lt;br&gt;Rating: INT&lt;br&gt;CreationDate: Date&lt;/td&gt;&lt;/tr&gt;&lt;/tbody&gt;&lt;/table&gt;" style="verticalAlign=top;align=left;overflow=fill;html=1;whiteSpace=wrap;" vertex="1" parent="1">
          <mxGeometry x="270" y="204" width="327" height="133" as="geometry" />
        </mxCell>
      </root>
    </mxGraphModel>
  </diagram>
</mxfile>
